# xmcd
#
# Track frame offsets: 
#        150
#        17820
#        33147
#        46637
#        57227
#        71032
#        89752
#        99320
#        111317
#        122352
#        134987
#        150195
#        162550
#        172455
#        183920
#        203942
#        213790
#        227525
#        241520
#        251690
#        274097
#        287445
#
# Disc length: 4065 seconds
#
# Revision: 0
# Processed by: cddbd v1.5.1PL0 Copyright (c) Steve Scherf et al.
# Submitted via: ExactAudioCopy v0.95a5
#
DISCID=310fdf16
DTITLE=Various Artist - Jump, Jumpin' the Blues Volume 12
DYEAR=1999
DGENRE=Blues
TTITLE0=K C Douglas/You Got a Good Thing Now
TTITLE1=Sonny Terry/My Baby Done Gone
TTITLE2=Sonny Terry/High Powered Woman
TTITLE3=Memphis Willie B/Good Potatoes
TTITLE4=Lightnin' Hopkins/Wine Spodee-O-Dee
TTITLE5=Memphis Slim/Frankie and Johnny Boogie
TTITLE6=Willy Dixon and Memphis Slim/Don't You Tell Nobody
TTITLE7=Little Brother Montgomery/Santa Fe
TTITLE8=Billy Boy Arnold/Get Out of Here
TTITLE9=Billy Boy Arnold/You Better Cut That Out
TTITLE10=Homesick James/Working With Homesick
TTITLE11=Otis Spann and James Cotton/Lightnin'
TTITLE12=Shakey Jake/It Won't Happen Again
TTITLE13=Roosvelt Sykes/Runnin' the Boogie
TTITLE14=Roosvelt Sykes/Hey Big Momma
TTITLE15=Curtis Jones/Good Time Special
TTITLE16=Jimmy Witherspoon/One Scotch, One Bourbon, One Beer
TTITLE17=Jimmy Witherspoon/Kansas City
TTITLE18=Jimmy Witherspoon/Drinkin' Beer
TTITLE19=Mildred Anderson/I'm Free
TTITLE20=Mildred Anderson/Cool Kind of Poppa
TTITLE21=Sunnyland Slim/Slim's Shout
EXTD=
EXTT0=
EXTT1=
EXTT2=
EXTT3=
EXTT4=
EXTT5=
EXTT6=
EXTT7=
EXTT8=
EXTT9=
EXTT10=
EXTT11=
EXTT12=
EXTT13=
EXTT14=
EXTT15=
EXTT16=
EXTT17=
EXTT18=
EXTT19=
EXTT20=
EXTT21=
PLAYORDER=
